<?xml version="1.0" standalone="no"?>
<!DOCTYPE svg PUBLIC "-//W3C//DTD SVG 20010904//EN"
 "http://www.w3.org/TR/2001/REC-SVG-20010904/DTD/svg10.dtd">
<svg version="1.0" xmlns="http://www.w3.org/2000/svg"
 width="723.000000pt" height="723.000000pt" viewBox="0 0 723.000000 723.000000"
 preserveAspectRatio="xMidYMid meet">
<metadata>
Created by potrace 1.11, written by Peter Selinger 2001-2013
</metadata>
<g transform="translate(0.000000,723.000000) scale(0.100000,-0.100000)"
fill="#000000" stroke="none">
<path d="M2340 7206 c-8 -8 -42 -30 -75 -49 -159 -89 -151 -80 -105 -125 102
-102 301 -491 461 -902 18 -47 34 -86 35 -88 2 -3 244 116 253 124 4 3 -9 40
-34 99 -7 17 -31 73 -53 125 -168 396 -406 830 -456 830 -6 0 -18 -6 -26 -14z"/>
<path d="M4707 7183 c-5 -8 -14 -46 -23 -98 -19 -107 -96 -381 -166 -588 -41
-125 -64 -183 -125 -324 -3 -7 45 -37 126 -77 72 -37 133 -66 135 -66 2 0 6 8
9 18 3 9 26 76 52 147 25 72 47 135 49 140 1 6 7 26 13 45 27 82 74 240 78
257 2 10 17 65 33 123 17 58 43 152 58 209 32 121 46 100 -121 173 -126 55
-113 50 -118 41z"/>
<path d="M182 5679 l-144 -102 74 -39 c40 -22 111 -68 158 -102 47 -34 99 -69
115 -78 29 -14 117 -61 240 -128 33 -18 65 -36 70 -40 6 -4 64 -36 130 -70 66
-35 161 -91 210 -125 l90 -62 103 103 c56 57 102 105 102 108 0 3 -15 13 -32
22 -18 9 -53 38 -78 64 -27 29 -77 65 -125 90 -44 24 -114 62 -155 85 -41 23
-133 73 -205 110 -120 62 -225 131 -348 227 -27 21 -52 38 -55 38 -4 0 -72
-46 -150 -101z"/>
<path d="M3348 5355 c-2 -1 -32 -6 -68 -9 -116 -12 -256 -44 -380 -85 -125
-42 -346 -144 -435 -202 -27 -18 -68 -44 -90 -58 -137 -88 -311 -240 -384
-334 -89 -116 -143 -231 -156 -337 -7 -51 -8 -375 -1 -405 2 -11 7 -49 11 -85
4 -36 11 -87 17 -115 5 -27 11 -61 14 -75 15 -76 89 -344 129 -465 48 -145
142 -397 238 -640 94 -236 104 -309 71 -520 -7 -52 -36 -170 -44 -180 -4 -5
-10 -18 -13 -28 -6 -15 -3 -17 16 -12 21 6 21 5 2 -6 -33 -21 -57 -47 -48 -52
4 -3 25 -8 46 -12 20 -4 37 -10 36 -14 0 -3 -59 -35 -132 -70 -73 -36 -138
-69 -144 -74 -19 -14 21 -80 84 -137 54 -49 176 -125 219 -136 33 -9 30 -17
-18 -50 -24 -16 -44 -32 -46 -36 -2 -5 -10 -8 -18 -8 -8 0 -14 -3 -14 -7 -1
-5 -24 -24 -51 -43 -101 -70 -99 -66 -58 -78 19 -5 86 -31 148 -58 l113 -48
-108 -54 c-60 -30 -111 -56 -114 -59 -8 -7 39 -86 73 -123 67 -72 201 -171
280 -208 96 -45 223 -63 455 -64 52 0 90 -4 85 -9 -4 -4 -54 -31 -111 -58
l-102 -50 -1 -53 c-1 -29 -2 -64 -4 -78 -10 -97 -18 -183 -16 -192 0 -3 74 31
163 76 l163 82 6 39 c4 22 10 76 14 120 4 44 8 91 10 105 1 14 3 28 3 31 1 3
28 11 60 18 68 15 320 136 377 181 22 17 52 50 67 71 26 40 57 143 45 155 -5
5 -51 -15 -107 -47 -8 -5 -61 -32 -117 -60 -79 -41 -104 -58 -112 -79 -11 -34
-24 -36 -172 -34 -315 4 -395 26 -575 163 -33 25 -69 57 -79 70 -17 22 -17 23
1 18 11 -3 37 -8 59 -11 22 -3 59 -8 81 -11 44 -6 92 -11 184 -19 235 -21 350
-24 417 -14 41 7 203 65 213 77 3 3 24 19 48 34 23 15 56 42 74 60 36 37 88
116 88 133 0 7 -46 -10 -109 -41 l-109 -54 -173 5 c-251 7 -298 12 -569 59
-19 4 -57 16 -85 27 -96 41 -155 69 -155 74 0 3 4 3 8 0 12 -7 75 -17 202 -32
92 -10 321 -12 390 -3 65 9 127 17 165 23 11 2 40 7 65 11 60 9 96 27 166 83
32 26 88 69 124 96 81 61 89 69 70 62 -29 -10 -146 -35 -190 -42 -25 -3 -70
-10 -100 -14 -55 -8 -398 -6 -435 3 -11 2 -47 8 -80 12 -139 17 -291 55 -364
92 -74 38 -153 99 -171 134 -12 21 -8 20 70 -14 134 -58 171 -72 246 -91 69
-18 103 -24 164 -31 25 -3 56 -8 70 -10 14 -3 68 -7 120 -11 52 -3 112 -9 132
-14 39 -8 176 -6 236 4 22 3 75 39 160 107 70 56 150 113 178 127 l52 25 10
91 c5 50 10 172 10 271 0 199 7 278 29 345 58 176 314 490 603 739 247 214
499 514 586 697 42 89 86 222 98 298 4 21 8 42 11 46 2 4 7 29 10 56 4 27 8
63 11 79 12 88 11 245 -3 310 -31 150 -136 308 -249 378 -52 32 -253 117 -309
131 -5 2 -30 9 -55 16 -80 24 -281 70 -329 75 -20 2 -47 6 -61 9 -60 10 -167
22 -285 32 -80 6 -542 14 -547 9z"/>
<path d="M7120 5289 c-36 -10 -74 -20 -85 -23 -11 -2 -60 -14 -110 -26 -49
-12 -97 -23 -105 -25 -181 -42 -487 -134 -570 -171 -45 -21 -194 -95 -198 -99
-2 -2 20 -51 49 -110 41 -84 55 -105 68 -99 97 42 535 178 866 269 164 44 190
54 189 71 -1 34 -15 127 -27 180 l-12 51 -65 -18z"/>
<path d="M775 3816 c-159 -62 -303 -118 -318 -124 -16 -7 -30 -12 -33 -12 -3
0 -62 -28 -132 -63 -115 -57 -292 -164 -292 -177 0 -9 126 -195 130 -193 3 1
75 35 160 76 85 40 227 104 315 141 199 84 223 95 259 112 16 8 33 14 39 14 9
0 80 29 185 76 29 13 57 24 63 24 6 0 8 9 4 21 -4 12 -8 27 -10 33 -1 6 -5 18
-8 26 -4 8 -15 47 -25 85 -12 42 -25 71 -33 71 -8 1 -144 -49 -304 -110z"/>
<path d="M5658 3538 c-71 -88 -149 -190 -146 -192 2 -1 17 -8 33 -16 82 -40
182 -113 315 -229 87 -76 403 -391 473 -471 l48 -55 42 46 c116 126 147 163
147 170 0 8 -344 356 -420 424 -219 197 -301 264 -394 324 -28 17 -55 31 -61
31 -5 0 -22 -15 -37 -32z"/>
</g>
</svg>
